<?xml version="1.0" encoding="UTF-8"?><svg id="a" xmlns="http://www.w3.org/2000/svg" xmlns:xlink="http://www.w3.org/1999/xlink" viewBox="0 0 1024 1024"><defs><linearGradient id="b" x1="616.95" y1="859.14" x2="457.87" y2="332.94" gradientUnits="userSpaceOnUse"><stop offset="0" stop-color="#9300c9"/><stop offset=".48" stop-color="#274fff"/><stop offset=".57" stop-color="#3056ff"/><stop offset=".71" stop-color="#496bff"/><stop offset=".9" stop-color="#728cff"/><stop offset="1" stop-color="#8ca1ff"/></linearGradient><linearGradient id="c" x1="1002.92" y1="218.76" x2="317.88" y2="616.15" gradientUnits="userSpaceOnUse"><stop offset=".12" stop-color="#6a00c9"/><stop offset=".56" stop-color="#5942ff"/><stop offset=".63" stop-color="#5e4bff"/><stop offset=".75" stop-color="#6b64ff"/><stop offset=".9" stop-color="#818dff"/><stop offset=".96" stop-color="#8ca1ff"/></linearGradient><linearGradient id="d" x1="345.05" y1="679.59" x2="734.97" y2="285.63" gradientUnits="userSpaceOnUse"><stop offset=".06" stop-color="#6a00c9"/><stop offset=".48" stop-color="#5942ff"/><stop offset=".57" stop-color="#5e4bff"/><stop offset=".71" stop-color="#6b64ff"/><stop offset=".89" stop-color="#818dff"/><stop offset=".97" stop-color="#8ca1ff"/></linearGradient></defs><path d="M512,237.21c-151.76,0-274.79,123.03-274.79,274.79s123.03,274.79,274.79,274.79,274.79-123.03,274.79-274.79-123.03-274.79-274.79-274.79Zm0,448.01c-95.67,0-173.22-77.55-173.22-173.22s77.55-173.22,173.22-173.22,173.22,77.55,173.22,173.22-77.55,173.22-173.22,173.22Z" style="fill:url(#b);"/><path d="M512,237.21c-72.29,0-138.04,27.93-187.1,73.56-34.87,46.06-55.57,103.45-55.57,165.68,0,151.76,123.03,274.79,274.79,274.79,72.29,0,138.04-27.93,187.1-73.56,34.87-46.06,55.57-103.45,55.57-165.68,0-151.76-123.03-274.79-274.79-274.79Zm0,448.01c-95.67,0-173.22-77.55-173.22-173.22s77.55-173.22,173.22-173.22,173.22,77.55,173.22,173.22-77.55,173.22-173.22,173.22Z" style="fill:url(#c);"/><path d="M531.9,292.57c-109.48,0-198.24,88.75-198.24,198.24,0,21.96,3.58,43.08,10.17,62.82-3.29-13.33-5.05-27.27-5.05-41.62,0-95.67,77.55-173.22,173.22-173.22s173.22,77.55,173.22,173.22-77.55,173.22-173.22,173.22c-10.52,0-20.82-.94-30.83-2.74,16.19,4.27,33.19,6.56,50.72,6.56,109.48,0,198.24-88.75,198.24-198.24s-88.75-198.24-198.24-198.24Z" style="fill:url(#d);"/></svg>